
<svg xmlns="http://www.w3.org/2000/svg" viewBox="0 0 1004.05 1052.96"><defs><style>.cls-1{fill:#e8e9e3;}.cls-2{fill:none;stroke:#000;stroke-miterlimit:10;}.cls-3{fill:#d9d6ca;}.cls-4{fill:#d0cdc2;}.cls-5{fill:#b4b7ad;}.cls-6{fill:#c9a955;}.cls-7{fill:#25170a;}.cls-8{fill:#fffcdb;}.cls-9{fill:#483820;}.cls-10{fill:#201b1b;}.cls-11{fill:#3e3d40;}.cls-12{fill:#8e847d;}</style></defs><g id="Layer_2" data-name="Layer 2"><polyline class="cls-1" points="752.67 932.54 757.83 887.57 744.56 910.37 691.48 921.48 653.15 915.59 605.97 893.47 567.63 862.26 557.31 822.7 551.41 874.3 538.5 874.3 530.77 834.5 518.55 874.3 524.88 899.37 504.24 924.45 530.77 929.14 567.63 963.16 554.36 992.25 520.45 998.15 544.04 1007 529.3 1046.8 554.36 1036.48 567.63 1034.74 567.63 1012.44 589.75 1011.42 589.75 990.15 629.56 980.46 681.16 996.68 653.15 1023.21 716.04 1046.8 742.35 1028.38 745.29 988.57 773.31 973.82 758.57 939.91 799.85 935.49 814.59 895.68 818.28 863.98 821.23 852.19 827.12 824.17 805.01 768.15 812.38 794.69 806.48 827.12 800.58 858.09 757.83 887.57 744.56 910.37 691.48 921.48 653.15 915.59 605.97 893.47 567.63 862.26 557.31 822.7 551.41 874.3 538.5 874.3 530.77 834.5 518.55 874.3 524.88 899.37 504.24 924.45 530.77 929.14 546.99 943.6 567.63 963.16 554.36 992.25 520.45 998.15 544.04 1007 529.3 1046.8 554.36 1036.48 567.63 1034.74 567.63 1012.44 589.75 1011.42 589.75 990.15 629.56 980.46 681.16 996.68 653.15 1023.21 717.28 1051.96 742.45 1052.96 754.88 1017.32 753.4 996.68 799.11 992.25 816.8 968.66 815.33 949.5 816.8 915.59 816.8 897.89 821.23 880.2 818.28 863.98 834.5 884.62 840.39 912.64 838.92 950.97 834.5 976.03 833.02 1014.37 819.75 1026.16 797.63 1052.96 963.9 1052.96 973.09 1030.59 978.98 1008.47 989.3 967.19 987.83 943.6 990.78 922.96 1004.05 855.14 999.62 766.67 995.2 753.4 990.78 731.29 980.46 712.12 973.09 685.58 964.24 669.37 956.87 635.45 943.6 604.49 939.17 570.58 934.75 558.79 928.86 535.2 914.11 517.5 908.21 495.39 899.37 473.27 889.12 456.32 877.25 427.57 887.57 414.3 897.89 395.13 890.52 378.91 884.62 364.17 886.1 333.21 877.25 322.89 872.83 312.57 890.52 296.35 892 258.01 902.32 189.63 902.32 140.06 886.1 112.05 865.46 91.41 868.4 82.56 859.56 78.14 847.76 78.14 840.39 88.46 830.07 85.81 830.07 97.31 779.94 92.89 741.61 86.99 719.49 50.13 694.43 28.01 663.47 17.69 611.87 4.42 530.77 0 490.97 13.27 448.21 38.33 406.93 79.62 378.91 140.7 367.12 216.73 378.91 305.19 349.92 318.46 332.58 318.46 302.25 318.46 272.76 337.63 256.54 331.73 225.58 342.05 179.87 401.03 162.18 420.2 123.85 503.05 123.85 523.4 76.67 600.07 36.86 699.98 36.86 734.24 20.64 776.77 20.64 810.9 11.79 836.22 11.79 869.88 0 912.64 4.42 922.96 11.79 922.96 0 957.09 0 1001.38 11.79 1036.48 19.29 1052.96 148.53 1052.96 154.81 1043.86 171.04 1052.96 187.01 1052.96 200.51 1036.48 196.09 996.68 185.77 971.61 185.77 949.5 162.18 922.96 165.13 915.59 157.76 909.69 169.55 892 168.08 878.73 181.35 846.29 185.77 825.65 200.51 787.32 228.53 726.87 246.22 694.43 255.07 681.16 243.27 716.54 235.9 746.03 222.63 776.99 222.63 799.11 197.57 835.97 190.19 871.35 207.89 887.57 215.26 887.57 240.32 911.16 255.07 914.11 268.34 905.26 263.91 922.96 277.18 937.7 280.13 964.24 262.44 999.62 263.91 1018.79 252.12 1036.48 249.17 1048.28 549.12 1052.96 673.34 1052.43 717.5 1052.96"/><path class="cls-2" d="M1182.46,1079.47" transform="translate(-499.95 -27.04)"/></g><g id="Layer_7" data-name="Layer 7"><polygon class="cls-3" points="434.2 27.28 415.98 35.43 378.18 52.34 353.11 112.05 338.37 177.66 325.1 176.19 291.19 187.98 279.39 221.89 286.76 255.8 302.98 277.92 302.25 318.46 349.92 318.46 378.91 305.19 356.8 249.17 356.8 196.83 378.91 140.7 390.71 89.94 434.2 27.28"/><path class="cls-4" d="M948.16,65.37" transform="translate(-499.95 -27.04)"/><polygon class="cls-5" points="371.84 252.12 367.12 216.73 378.91 140.7 356.8 196.83 356.8 255.51 378.91 305.19 371.84 252.12"/><polygon class="cls-5" points="434.2 27.28 390.71 89.94 378.91 140.7 406.93 79.62 448.21 38.33 466.64 27.28 434.2 27.28"/></g><g id="Layer_3" data-name="Layer 3"><path class="cls-6" d="M899.51,316s-5.16-11.05-8.85-33.91-5.16-76.08,0-94.43,8.85-21.12,8.85-21.12,11.06-17.88,23.59-27.46,40.54-19.9,60.45-22.12,26-4.42,64.13-3.68,51.6,2.95,81.83,11.06S1173.74,145,1173.74,145s33.17,16.95,39.81,23.59,15.48,24.32,22.11,38.33,9.59,39.07,8.85,60.45-11.79,54.55-11.79,54.55-37.6,45-42.76,51.6-24.33,27.28-32.44,29.49c-17,6.64-78.14,10.32-78.14,10.32s-55.29-3.45-77.4-10.94-42.76-20.76-68.56-45.08S899.51,316,899.51,316Z" transform="translate(-499.95 -27.04)"/><polygon class="cls-7" points="628.08 143.01 628.08 184.8 607.44 225.81 598.6 252.12 580.74 259.8 580.74 284.41 560.26 309.62 502.02 309.62 502.02 341.83 580.74 355.9 644.3 321.41 657.57 339.11 579.43 386.29 647.29 377.32 706.92 326.06 732.76 294.87 744.56 215.27 722.81 157.52 694.39 130.16 661.15 112.05 628.08 143.01"/><polygon class="cls-8" points="461.48 144.49 449.68 194.62 461.48 238.11 490.52 249.17 470.1 222.3 470.1 196.83 490.52 181.28 490.52 155.5 461.48 144.49"/><polygon class="cls-9" points="700.33 190.19 691.48 243.27 673.79 297.82 666.42 316.99 688.58 316.99 707.7 286.03 707.7 249.17 719.49 224.1 719.49 175.42 706.22 153.34 700.33 190.19"/></g><g id="Layer_4" data-name="Layer 4"><polygon class="cls-10" points="606.55 439.13 632.51 470.32 626.61 498.34 627.67 526.48 619.53 550.17 619.53 572.46 606.55 604.14 606.55 624.08 580.74 624.08 632.51 635.82 682.51 660.46 784.37 728.34 784.37 760.18 772.57 785.84 738.66 810.9 687.06 822.7 645.77 796.16 656.1 816.8 703.28 844.82 744.56 844.82 790.26 821.23 800.58 799.11 800.58 751.97 853.66 884.62 875.78 806.48 856.61 691.48 887.57 673.79 887.57 634.64 847.76 597.12 799.11 564.68 769.64 526.48 692.96 480.64 664.94 455.58 606.55 439.13"/></g><g id="Layer_5" data-name="Layer 5"><polygon class="cls-11" points="909.26 1052.43 909.26 1037.96 927.38 1037.96 927.38 1020.27 921.48 1001.1 936.23 978.98 936.23 953.92 921.48 933.28 939.17 906.74 939.17 841.87 948.02 830.07 934.75 748.98 955.39 743.08 918.53 728.34 905.26 636.93 868.2 606.48 868.2 586.8 847.76 586.8 847.08 567.63 830.07 567.63 812.38 546.99 819.75 511.61 802.06 511.61 812.38 467.38 791.74 457.06 784.37 433.46 819.75 449.68 806.48 421.67 760.78 411.35 687.06 416.41 639.88 420.2 629.56 433.46 614.81 427.57 607.44 405.45 676.74 381.86 734.16 340.15 760.04 260.36 766.67 188.72 753.4 112.05 837.69 112.05 866.93 140.06 874.3 191.67 862.51 232.95 858.09 277.18 855.14 318.46 855.14 336.16 866.93 342.05 866.93 361.22 855.14 362.7 856.61 392.18 856.61 417.25 877.25 427.57 904.21 485.38 917.8 540.36 939.17 570.58 956.87 635.45 973.09 685.58 995.2 753.4 1002.58 825.78 994.45 904.2 987.83 943.6 984.4 986.81 966.23 1047.29 909.26 1052.43"/><polygon class="cls-11" points="619.97 864.72 726.51 914.15 744.56 910.37 757.83 887.57 800.58 858.09 812.38 794.69 829.33 829.33 816.07 858.82 815.88 884.62 799.85 935.49 763.5 939.38 789.53 959.08 761.51 956.13 768.55 976.33 742.35 994.46 742.35 1028.38 711.38 1040.17 672.42 1040.17 659.68 1017.03 681.16 996.68 628.82 972.35 591.96 994.46 593.43 1010.68 566.9 1004.78 566.9 1023.91 552.15 1022.48 537.06 1040.17 537.06 1014.08 520.45 998.15 554.36 992.25 569.85 953.18 530.77 929.14 502.02 928.3 520.42 904.78 512.34 869.14 528.56 826.39 528.56 863.25 553.02 860.28 547.73 777.73 562.47 855.87 593.43 873.57 607.44 861.74 612.6 870.62 619.97 864.72"/><polygon class="cls-5" points="11.79 922.96 44.97 934.01 90.6 934.01 146.75 928.49 162.18 922.96 165.13 915.59 157.76 909.69 146.7 919.27 129.01 919.27 116.47 921.85 97.07 921.85 81.98 921.85 70.03 925.17 55.68 921.85 39.07 917.8 31.7 919.27 21.38 914.85 11.79 915.75 0 912.64 4.42 922.96 11.79 922.96"/><polygon class="cls-5" points="833.02 1014.37 819.75 1026.16 839.65 1029.85 858.25 1040.17 882.41 1046.07 896.71 1052.96 909.26 1052.43 909.26 1037.96 893.67 1040.17 877.99 1026.9 864.51 1027.42 846.11 1014.37 833.02 1014.37"/></g><g id="Layer_6" data-name="Layer 6"><polygon class="cls-12" points="312.57 575 362.7 536.67 411.35 542.57 415.77 520.45 436.41 520.45 437.89 557.31 415.77 557.31 411.52 582.24 449.47 582.24 452.63 508.66 423.14 501.29 442.36 439.13 460 420.2 511.61 448.21 483.59 452.63 479.12 526.48 526.35 532.25 530.77 445.26 580.74 440.1 601.54 455.58 580.74 464.24 589.41 492.44 607.44 498.63 596.53 582.24 567.63 582.24 561.74 601.54 523.4 600.07 548.47 591.22 538.42 582.24 510.13 594.17 488.02 592.7 489.49 622.18 446.74 622.18 390.71 617.22 342.05 629.56 305.19 620.71 305.19 544.04 330.26 535.2 316.99 513.08 286.03 492.44 276.33 526.48 252.61 526.48 204.94 557.31 188.72 608.92 148.91 642.83 148.91 722.44 125.32 768.15 125.32 815.33 109.1 856.61 98.78 903.79 120.9 915.59 137.12 896.42 141.54 855.6 141.54 819.75 149.43 784.39 156.28 754.88 171.96 708.54 171.96 661.87 213.78 633.98 224.1 605.97 281.61 572.06 297.82 636.93 269.81 654.62 290.56 670.59 324.36 679.69 371.2 670.59 390.71 680.08 370.07 715.07 368.59 743.08 408.4 731.29 434.94 754.88 427.57 771.1 420.2 754.88 412.82 802.06 399.56 781.42 390.71 793.93 383.34 778.51 365.64 813.85 347.95 784.37 353.85 822.7 334.68 825.65 330.26 809.43 312.57 812.38 313.09 833.65 289.37 833.65 269.81 855.14 241.8 896.42 268.34 905.26 364.08 833.65 402.5 866.93 386.62 884.62 351.04 884.62 291.93 920.01 356.8 953.92 367.12 894.94 390.71 920.82 380.39 919.63 380.39 950.97 403.98 958.34 409.88 974.56 433.46 987.83 504.24 996.72 518.98 968.66 415.77 944.54 415.77 922.96 445.26 817.64 461.48 738.66 445.26 712.12 463.7 693.12 504.24 693.12 524.88 684.11 504.24 670.59 493.92 636.93 470.32 605.97 439.36 605.97 392.18 601.54 342.05 616.29 316.99 613.34 312.57 575"/><path class="cls-2" d="M1064.5,1235.5" transform="translate(-499.95 -27.04)"/></g></svg>
